<?xml version="1.0" encoding="iso-8859-1"?>
<!-- Generator: Adobe Illustrator 19.0.0, SVG Export Plug-In . SVG Version: 6.00 Build 0)  -->
<svg version="1.1" id="Capa_1" xmlns="http://www.w3.org/2000/svg" xmlns:xlink="http://www.w3.org/1999/xlink" x="0px" y="0px"
	 viewBox="0 0 512.089 512.089" style="enable-background:new 0 0 512.089 512.089;" xml:space="preserve">
<g transform="translate(-1 -1)">
	<g>
		<g>
			<path d="M497.748,194.509c-1.6-1.6-3.771-2.499-6.035-2.499h-215.55c-7.112,0.085-12.953-5.6-13.058-12.712V97.29
				c0.502-38.128-21.833-72.864-56.731-88.23c-34.898-15.366-75.601-8.386-103.386,17.73C84.17,44.26,73.508,68.799,73.58,94.477
				v0.934c-22.697,2.547-43.25,14.596-56.558,33.157c-3.706,5.126-4.212,11.901-1.308,17.521c2.746,5.454,8.327,8.898,14.433,8.908
				H73.58v40.683c0.527,90.034,56.597,170.39,140.918,201.955l-20.477,68.22l-32.608,32.613c-2.188,2.149-3.055,5.307-2.27,8.271
				c0.785,2.965,3.1,5.28,6.065,6.065c2.965,0.785,6.122-0.082,8.271-2.27l28.1-28.1l28.1,28.1
				c3.338,3.296,8.711,3.279,12.029-0.038c3.317-3.317,3.334-8.69,0.038-12.029l-30.526-30.527l19.518-65.032
				c15.735,4.422,31.941,6.956,48.275,7.55c2.654,0.094,5.291,0.137,7.928,0.139l7.998,56.772l-31.126,31.093
				c-3.302,3.338-3.289,8.715,0.03,12.036c3.319,3.321,8.697,3.338,12.036,0.038l28.117-28.086l28.083,28.082
				c3.341,3.281,8.701,3.256,12.012-0.054c3.311-3.311,3.335-8.671,0.054-12.012l-32.116-32.117l-7.953-56.459
				c49.618-3.69,96.369-24.669,132.111-59.283c41.004-39.138,64.159-93.382,64.058-150.067
				C500.247,198.28,499.349,196.11,497.748,194.509z M31.322,137.931c11.788-16.162,30.53-25.791,50.533-25.962h5.175
				c6.836,0.453,12.15,6.13,12.15,12.981s-5.314,12.529-12.15,12.981H31.322z M424.339,338.327
				c-38.615,37.475-90.957,57.395-144.717,55.075c-105.57-5.118-188.635-92.027-188.975-197.721v-41.059
				c14.708-2.179,25.6-14.803,25.6-29.672c0-14.869-10.892-27.493-25.6-29.672v-0.801c-0.051-20.961,8.659-40.99,24.025-55.246
				c22.824-21.457,56.272-27.171,84.925-14.508c28.652,12.663,46.944,41.244,46.442,72.566v82.008
				c0.115,16.534,13.591,29.855,30.125,29.779h206.833C480.874,258.12,459.853,304.438,424.339,338.327z"/>
			<path d="M163.18,69.302c-16.495,0-29.867,13.372-29.867,29.867c0,16.495,13.372,29.867,29.867,29.867
				c16.495,0,29.867-13.372,29.867-29.867C193.027,82.682,179.667,69.322,163.18,69.302z M163.18,111.969
				c-7.069,0-12.8-5.731-12.8-12.8c0-7.069,5.731-12.8,12.8-12.8c7.069,0,12.8,5.731,12.8,12.8
				C175.972,106.235,170.246,111.961,163.18,111.969z"/>
			<path d="M201.576,295.435c0,35.143,28.337,63.713,63.48,64c24.608,0,88.183-30.925,123.892-49.363
				c5.468-2.835,8.9-8.481,8.9-14.64s-3.432-11.805-8.9-14.64h0c-35.708-18.434-99.283-49.358-123.891-49.358
				C229.913,231.722,201.576,260.292,201.576,295.435z M265.055,342.369c-25.714-0.29-46.407-21.218-46.407-46.933
				c0-25.716,20.693-46.643,46.407-46.933c15.025,0,57.992,17.533,115.042,46.933C323.047,324.835,280.08,342.369,265.055,342.369z"
				/>
		</g>
	</g>
</g>
<g>
</g>
<g>
</g>
<g>
</g>
<g>
</g>
<g>
</g>
<g>
</g>
<g>
</g>
<g>
</g>
<g>
</g>
<g>
</g>
<g>
</g>
<g>
</g>
<g>
</g>
<g>
</g>
<g>
</g>
</svg>
