<svg width="41" height="47" viewBox="0 0 41 47" fill="none" xmlns="http://www.w3.org/2000/svg">
<path d="M40.209 23.2083C40.2088 23.2084 40.2093 23.2082 40.209 23.2083C40.2104 23.2072 40.2107 23.2046 40.209 23.2041L22.8524 17.5373C21.8914 17.2236 20.837 17.4149 20.0475 18.0464L16.5265 20.8625C15.0249 22.0635 15.0249 24.3472 16.5265 25.5482L20.0499 28.3662C20.8394 28.9977 21.8939 29.189 22.8549 28.8752L40.209 23.2083Z" fill="#FF70B4"/>
<path d="M0.34511 46.2517C0.34507 46.2515 0.345056 46.252 0.34511 46.2517C0.345374 46.2535 0.347433 46.255 0.348737 46.2538L13.9346 34.056C14.6868 33.3806 15.0483 32.3718 14.8962 31.3723L14.2178 26.915C13.9286 25.0141 11.9508 23.8722 10.16 24.5722L5.95779 26.2145C5.01615 26.5825 4.32321 27.4 4.11447 28.3892L0.34511 46.2517Z" fill="#FF70B4"/>
<path d="M0.328112 0.0764727C0.328356 0.0765688 0.327917 0.0762972 0.328112 0.0764727C0.326485 0.0758309 0.324136 0.0768471 0.324501 0.078557L4.14355 17.9924C4.35314 18.9755 5.04118 19.7884 5.97621 20.1574L10.1592 21.8084C11.9554 22.5174 13.9438 21.3694 14.2279 19.4593L14.89 15.0083C15.038 14.014 14.678 13.0116 13.9313 12.3386L0.328112 0.0764727Z" fill="#FF70B4"/>
</svg>
